<svg xmlns="http://www.w3.org/2000/svg" fill="none" viewBox="0 0 16 16">
  <path fill="#F44250" d="M12.38 6.432c-.456-.138-.691-.091-1.169-.142-.739-.077-1.033-.355-1.158-1.071-.07-.4.013-.985-.166-1.347-.34-.69-1.139-1-1.941-.823-.677.15-1.24.801-1.272 1.47-.035.764.417 1.416 1.192 1.64.37.108.76.161 1.146.189.706.05.76.427.951.739.12.196.237.389.237.974s-.117.778-.237.974c-.19.31-.426.514-1.133.564a5.5 5.5 0 0 0-1.145.189c-.776.225-1.228.876-1.192 1.64.031.67.595 1.32 1.272 1.47.802.178 1.6-.133 1.941-.823.18-.362.277-.773.347-1.172.126-.716.42-.994 1.158-1.072.478-.05.973 0 1.42-.245.474-.333.896-.832.896-1.525s-.455-1.42-1.147-1.629"/>
  <path fill="#121212" d="M4.8 9.684c-.931 0-1.691-.733-1.691-1.631 0-.899.76-1.632 1.691-1.632s1.69.733 1.69 1.632-.76 1.631-1.69 1.631M1.685 13c-.93-.002-1.687-.738-1.685-1.637.002-.898.765-1.629 1.697-1.626.93.002 1.688.738 1.685 1.637-.002.897-.765 1.628-1.697 1.626m12.565 0c-.934.005-1.7-.723-1.704-1.62-.006-.9.749-1.638 1.678-1.643.932-.005 1.698.723 1.703 1.62.005.899-.749 1.638-1.678 1.643"/>
</svg>
