<svg xmlns="http://www.w3.org/2000/svg" fill="none" viewBox="0 0 16 16">
  <path fill="#000" d="M14.08 6.729a3.45 3.45 0 0 0-.305-2.865 3.59 3.59 0 0 0-3.85-1.691 3.6 3.6 0 0 0-1.555-.999 3.63 3.63 0 0 0-1.853-.098 3.6 3.6 0 0 0-1.655.83A3.53 3.53 0 0 0 3.85 3.438c-.493.1-.96.303-1.367.594a3.5 3.5 0 0 0-.997 1.098 3.49 3.49 0 0 0 .44 4.14 3.44 3.44 0 0 0 .301 2.864 3.6 3.6 0 0 0 3.853 1.692 3.57 3.57 0 0 0 2.666 1.173 3.58 3.58 0 0 0 3.413-2.453 3.56 3.56 0 0 0 2.364-1.692 3.495 3.495 0 0 0-.442-4.126m-5.335 7.355a2.67 2.67 0 0 1-1.701-.607l.084-.047 2.826-1.61a.47.47 0 0 0 .232-.397v-3.93l1.195.682q.018.01.022.03v3.257c-.003 1.447-1.191 2.619-2.658 2.622m-5.713-2.407a2.58 2.58 0 0 1-.316-1.758l.084.05 2.828 1.609a.46.46 0 0 0 .462 0l3.455-1.965v1.36a.05.05 0 0 1-.02.036l-2.861 1.629c-1.272.722-2.897.293-3.632-.96m-.744-6.071c.314-.535.81-.942 1.399-1.151v3.312a.44.44 0 0 0 .23.394l3.438 1.957-1.195.681a.05.05 0 0 1-.042 0L3.261 9.175a2.61 2.61 0 0 1-.973-3.582zm9.814 2.249-3.45-1.976L9.846 5.2a.05.05 0 0 1 .042 0l2.856 1.628c.437.249.793.615 1.027 1.056a2.59 2.59 0 0 1-.237 2.799 2.66 2.66 0 0 1-1.19.873V8.244a.46.46 0 0 0-.24-.39m1.19-1.764-.085-.05-2.823-1.622a.46.46 0 0 0-.464 0L6.468 6.384v-1.36a.04.04 0 0 1 .016-.036l2.857-1.626a2.69 2.69 0 0 1 2.85.122c.415.285.738.68.933 1.14s.253.965.167 1.456zM5.815 8.503 4.62 7.825a.05.05 0 0 1-.02-.035V4.543c0-.498.145-.986.416-1.406a2.65 2.65 0 0 1 1.116-.967 2.69 2.69 0 0 1 2.83.359l-.084.047L6.05 4.184a.47.47 0 0 0-.232.398zm.649-1.38 1.539-.874 1.541.875v1.75l-1.536.874-1.541-.875z"/>
</svg>
